<?xml version="1.0" standalone="no"?>
<!DOCTYPE svg PUBLIC "-//W3C//DTD SVG 20010904//EN"
 "http://www.w3.org/TR/2001/REC-SVG-20010904/DTD/svg10.dtd">
<svg version="1.0" xmlns="http://www.w3.org/2000/svg"
 width="1024.000000pt" height="1024.000000pt" viewBox="0 0 1024.000000 1024.000000"
 preserveAspectRatio="xMidYMid meet">

<g transform="translate(0.000000,1024.000000) scale(0.100000,-0.100000)"
fill="#000000" stroke="none">
<path d="M6317 9222 c-14 -15 -17 -40 -17 -120 0 -124 7 -132 116 -132 180 0
547 -97 737 -195 253 -130 476 -329 629 -560 119 -179 218 -417 254 -610 23
-124 35 -135 155 -135 77 0 92 3 110 21 18 18 20 28 14 72 -42 341 -196 685
-436 972 -311 372 -779 624 -1284 690 -163 21 -257 20 -278 -3z"/>
<path d="M6323 8719 c-9 -9 -13 -48 -13 -120 0 -73 4 -110 13 -117 6 -5 55
-13 107 -17 231 -16 458 -100 635 -233 199 -149 355 -366 435 -607 22 -66 45
-127 50 -135 12 -19 181 -27 223 -11 34 13 35 42 8 156 -76 312 -316 649 -601
844 -221 152 -470 238 -715 248 -100 4 -133 2 -142 -8z"/>
<path d="M6355 8233 c-41 -10 -45 -22 -45 -125 0 -55 4 -107 10 -117 7 -15 27
-20 87 -26 186 -16 327 -78 445 -196 64 -64 85 -93 127 -181 38 -78 57 -107
73 -112 36 -9 174 -7 201 3 38 15 40 41 11 122 -125 350 -458 604 -829 632
-33 3 -69 3 -80 0z"/>
<path d="M2480 8123 c-300 -32 -558 -158 -761 -370 -165 -173 -262 -366 -305
-609 -23 -134 -24 -516 0 -650 31 -182 82 -309 184 -464 141 -213 346 -359
600 -428 89 -23 114 -26 297 -26 l200 -1 94 33 c111 39 190 84 266 154 l55 50
0 -388 c0 -312 -3 -402 -15 -453 -51 -215 -231 -351 -464 -351 -150 0 -251 41
-345 140 -87 91 -126 191 -126 326 0 110 22 104 -361 104 -266 0 -329 -3 -345
-14 -40 -30 -12 -303 48 -476 37 -105 56 -143 123 -247 165 -253 422 -424 729
-484 331 -65 668 -12 937 147 102 61 267 216 338 319 111 160 188 367 212 565
7 66 9 386 6 1040 -4 1042 -5 1049 -69 1250 -64 201 -153 348 -297 490 -158
157 -325 254 -524 305 -142 36 -346 52 -477 38z m263 -698 c87 -23 155 -61
217 -124 62 -62 101 -132 127 -231 20 -78 23 -376 4 -454 -46 -191 -200 -330
-393 -355 -251 -34 -450 84 -533 315 -23 65 -33 358 -15 463 31 184 167 339
339 387 64 17 186 17 254 -1z"/>
<path d="M5032 8119 c-440 -60 -795 -336 -952 -741 -94 -242 -116 -705 -46
-979 103 -406 381 -694 774 -801 108 -29 433 -33 532 -5 103 29 240 101 309
164 l62 56 -3 -409 c-4 -393 -5 -411 -26 -468 -59 -157 -170 -262 -319 -301
-65 -17 -197 -19 -262 -4 -125 28 -244 125 -300 243 -28 58 -34 83 -40 176 -4
65 -13 115 -20 124 -12 14 -55 16 -341 16 -181 0 -336 -3 -345 -6 -30 -12 -35
-50 -25 -175 15 -164 49 -291 115 -425 150 -307 406 -517 730 -599 253 -64
543 -54 771 26 190 67 327 154 456 287 164 171 259 359 306 607 15 81 17 190
17 1110 0 1128 1 1112 -66 1320 -126 395 -481 694 -914 770 -114 20 -318 27
-413 14z m307 -690 c170 -39 314 -192 351 -374 19 -88 16 -365 -4 -443 -35
-139 -129 -257 -248 -312 -113 -52 -274 -59 -395 -16 -145 51 -260 193 -284
351 -7 41 -9 145 -6 255 4 156 8 194 26 244 53 149 163 250 314 291 61 16 184
19 246 4z"/>
<path d="M6919 7276 c-99 -27 -184 -98 -231 -195 -21 -43 -23 -63 -29 -291 -3
-135 -5 -798 -5 -1475 l1 -1230 23 -57 c29 -71 99 -147 172 -184 l55 -29 870
0 870 0 67 33 c74 36 132 95 170 170 l23 47 3 1435 c2 1039 0 1452 -8 1495
-22 114 -98 212 -207 266 l-48 24 -840 2 c-645 1 -851 -1 -886 -11z m1210
-250 c9 -11 10 -20 1 -35 -11 -21 -16 -21 -347 -19 -301 3 -337 5 -346 20 -8
12 -7 21 2 32 12 14 55 16 346 16 277 0 335 -2 344 -14z m573 -284 l23 -23 0
-1120 0 -1121 -28 -24 -28 -24 -880 0 c-907 0 -906 0 -936 39 -10 12 -12 270
-13 1132 0 1179 -2 1132 45 1158 14 7 275 10 907 8 l887 -2 23 -23z m-841
-2488 c62 -32 87 -127 53 -200 -38 -79 -152 -103 -222 -47 -71 57 -80 151 -20
218 47 54 119 66 189 29z"/>
<path d="M1690 3541 c-30 -10 -70 -26 -89 -35 -53 -28 -131 -106 -157 -158
-53 -104 -54 -119 -54 -720 0 -369 4 -575 11 -610 55 -262 352 -400 616 -287
97 41 187 159 212 277 15 72 15 264 -1 280 -8 8 -50 12 -125 12 -136 0 -133 3
-133 -136 0 -161 -44 -221 -157 -212 -38 3 -61 11 -79 29 -54 50 -54 44 -54
644 0 540 1 557 20 596 26 50 72 79 128 79 54 0 94 -20 124 -62 20 -29 23 -47
27 -145 2 -76 7 -116 16 -123 8 -7 56 -10 126 -8 l113 3 10 34 c14 49 -8 259
-33 316 -70 157 -210 246 -389 244 -45 0 -100 -7 -132 -18z"/>
<path d="M2422 3528 c-17 -17 -17 -1779 0 -1796 17 -17 679 -17 696 0 16 16
16 220 0 236 -9 9 -70 12 -215 12 l-203 0 0 270 0 270 174 0 c211 0 206 -3
206 125 0 128 5 125 -206 125 l-174 0 0 250 0 250 193 0 c137 0 196 3 205 12
17 17 17 229 0 246 -17 17 -659 17 -676 0z"/>
<path d="M3316 3524 c-14 -14 -16 -109 -16 -898 0 -673 3 -885 12 -894 9 -9
99 -12 345 -12 318 0 333 1 343 19 5 11 10 64 10 119 0 138 11 132 -228 132
l-192 0 0 759 c0 677 -2 761 -16 775 -12 13 -39 16 -129 16 -90 0 -117 -3
-129 -16z"/>
<path d="M4172 3528 c-17 -17 -17 -1779 0 -1796 9 -9 98 -12 338 -12 391 0
360 -11 360 133 0 142 8 137 -230 137 l-190 0 0 758 c0 723 -1 760 -18 775
-15 14 -41 17 -133 17 -76 0 -119 -4 -127 -12z"/>
<path d="M5005 3516 c-14 -21 -16 -105 -13 -757 4 -822 1 -783 78 -891 68 -96
193 -162 329 -174 191 -18 388 92 453 254 l23 57 3 752 c2 677 1 753 -13 767
-22 21 -236 24 -253 3 -8 -9 -12 -236 -14 -738 l-3 -724 -24 -42 c-26 -45 -86
-83 -132 -83 -42 0 -111 42 -131 80 -17 33 -18 77 -18 755 0 636 -2 723 -16
743 -14 21 -22 22 -134 22 -115 0 -120 -1 -135 -24z"/>
<path d="M6087 3522 c-16 -17 -17 -93 -17 -888 0 -771 2 -872 16 -892 15 -22
15 -22 348 -22 245 0 335 3 344 12 8 8 12 50 12 125 0 101 -2 113 -19 123 -12
6 -100 10 -215 10 l-196 0 0 759 c0 677 -2 761 -16 775 -12 13 -39 16 -128 16
-97 0 -115 -3 -129 -18z"/>
<path d="M7230 3525 c-7 -8 -63 -297 -126 -642 -194 -1077 -202 -1127 -192
-1145 8 -16 25 -18 133 -18 118 0 125 1 139 23 8 12 26 103 40 202 15 99 28
185 30 190 2 6 62 9 160 7 156 -3 156 -3 156 -26 0 -65 53 -363 67 -378 14
-15 35 -18 138 -18 97 0 125 3 135 15 10 13 -16 175 -144 892 -113 635 -160
881 -172 895 -15 16 -35 18 -184 18 -136 0 -170 -3 -180 -15z m241 -761 c27
-176 49 -331 49 -342 0 -21 -4 -22 -111 -22 l-112 0 6 43 c12 104 99 674 105
687 4 10 7 4 10 -15 2 -16 26 -174 53 -351z"/>
<path d="M8073 3525 l-23 -16 0 -879 c0 -785 2 -880 16 -894 12 -13 39 -16
133 -16 78 0 121 4 129 12 9 9 12 107 12 380 l0 368 59 0 c58 0 60 -1 70 -32
35 -115 80 -266 136 -463 35 -125 69 -233 76 -241 18 -21 242 -20 263 2 9 8
16 18 16 21 0 11 -93 332 -159 548 l-71 230 23 15 c91 62 146 145 166 254 14
75 14 291 1 374 -23 140 -86 240 -187 294 -73 40 -114 46 -388 52 -219 6 -253
5 -272 -9z m484 -264 c67 -31 77 -60 81 -238 4 -141 2 -157 -18 -198 -32 -66
-74 -85 -190 -85 l-90 0 0 270 0 270 88 0 c64 0 98 -5 129 -19z"/>
</g>
</svg>
